  0
SECTION
  2
HEADER
  9
$ACADVER
  1
AC1014
  9
$HANDSEED
  5
FFFF
  9
$INSUNITS
 70
     4
  9
$MEASUREMENT
 70
     1
  0
ENDSEC
  0
SECTION
  2
TABLES
  0
TABLE
  2
VPORT
  5
8
330
0
100
AcDbSymbolTable
 70
     4
  0
VPORT
  5
2E
330
8
100
AcDbSymbolTableRecord
100
AcDbViewportTableRecord
  2
*ACTIVE
 70
     0
 10
0.0
 20
0.0
 11
1.0
 21
1.0
 12
210.0
 22
148.5
 13
0.0
 23
0.0
 14
10.0
 24
10.0
 15
10.0
 25
10.0
 16
0.0
 26
0.0
 36
1.0
 17
0.0
 27
0.0
 37
0.0
 40
341.0
 41
1.24
 42
50.0
 43
0.0
 44
0.0
 50
0.0
 51
0.0
 71
     0
 72
   100
 73
     1
 74
     3
 75
     0
 76
     0
 77
     0
 78
     0
  0
ENDTAB
  0
TABLE
  2
LTYPE
  5
5
330
0
100
AcDbSymbolTable
 70
     1
  0
LTYPE
  5
14
330
5
100
AcDbSymbolTableRecord
100
AcDbLinetypeTableRecord
  2
BYBLOCK
 70
     0
  3

 72
    65
 73
     0
 40
0.0
  0
LTYPE
  5
15
330
5
100
AcDbSymbolTableRecord
100
AcDbLinetypeTableRecord
  2
BYLAYER
 70
     0
  3

 72
    65
 73
     0
 40
0.0
  0
LTYPE
  5
16
330
5
100
AcDbSymbolTableRecord
100
AcDbLinetypeTableRecord
  2
CONTINUOUS
 70
     0
  3
Solid line
 72
    65
 73
     0
 40
0.0
  0
ENDTAB
  0
TABLE
  2
LAYER
  5
2
100
AcDbSymbolTable
 70
3
  0
LAYER
  5
50
100
AcDbSymbolTableRecord
100
AcDbLayerTableRecord
  2
0
 70
0
  6
CONTINUOUS
  0
LAYER
  5
51
100
AcDbSymbolTableRecord
100
AcDbLayerTableRecord
  2
Edge
 70
0
  6
CONTINUOUS
  0
LAYER
  5
52
100
AcDbSymbolTableRecord
100
AcDbLayerTableRecord
  2
Guides
 70
0
  6
CONTINUOUS
  0
ENDTAB
  0
TABLE
  2
STYLE
  5
3
330
0
100
AcDbSymbolTable
 70
     1
  0
STYLE
  5
11
330
3
100
AcDbSymbolTableRecord
100
AcDbTextStyleTableRecord
  2
STANDARD
 70
     0
 40
0.0
 41
1.0
 50
0.0
 71
     0
 42
2.5
  3
txt
  4

  0
ENDTAB
  0
TABLE
  2
VIEW
  5
6
330
0
100
AcDbSymbolTable
 70
     0
  0
ENDTAB
  0
TABLE
  2
UCS
  5
7
330
0
100
AcDbSymbolTable
 70
     0
  0
ENDTAB
  0
TABLE
  2
APPID
  5
9
330
0
100
AcDbSymbolTable
 70
     2
  0
APPID
  5
12
330
9
100
AcDbSymbolTableRecord
100
AcDbRegAppTableRecord
  2
ACAD
 70
     0
  0
ENDTAB
  0
TABLE
  2
DIMSTYLE
  5
A
330
0
100
AcDbSymbolTable
 70
     1
  0
DIMSTYLE
105
27
330
A
100
AcDbSymbolTableRecord
100
AcDbDimStyleTableRecord
  2
ISO-25
 70
     0
  3

  4

  5

  6

  7

 40
1.0
 41
2.5
 42
0.625
 43
3.75
 44
1.25
 45
0.0
 46
0.0
 47
0.0
 48
0.0
140
2.5
141
2.5
142
0.0
143
0.03937007874016
144
1.0
145
0.0
146
1.0
147
0.625
 71
     0
 72
     0
 73
     0
 74
     0
 75
     0
 76
     0
 77
     1
 78
     8
170
     0
171
     3
172
     1
173
     0
174
     0
175
     0
176
     0
177
     0
178
     0
270
     2
271
     2
272
     2
273
     2
274
     3
340
11
275
     0
280
     0
281
     0
282
     0
283
     0
284
     8
285
     0
286
     0
287
     3
288
     0
  0
ENDTAB
  0
TABLE
  2
BLOCK_RECORD
  5
1
330
0
100
AcDbSymbolTable
 70
     1
  0
BLOCK_RECORD
  5
1F
330
1
100
AcDbSymbolTableRecord
100
AcDbBlockTableRecord
  2
*MODEL_SPACE
  0
BLOCK_RECORD
  5
1B
330
1
100
AcDbSymbolTableRecord
100
AcDbBlockTableRecord
  2
*PAPER_SPACE
  0
ENDTAB
  0
ENDSEC
  0
SECTION
  2
BLOCKS
  0
BLOCK
  5
20
330
1F
100
AcDbEntity
  8
0
100
AcDbBlockBegin
  2
*MODEL_SPACE
 70
     0
 10
0.0
 20
0.0
 30
0.0
  3
*MODEL_SPACE
  1

  0
ENDBLK
  5
21
330
1F
100
AcDbEntity
  8
0
100
AcDbBlockEnd
  0
BLOCK
  5
1C
330
1B
100
AcDbEntity
 67
     1
  8
0
100
AcDbBlockBegin
  2
*PAPER_SPACE
  1

  0
ENDBLK
  5
1D
330
1B
100
AcDbEntity
 67
     1
  8
0
100
AcDbBlockEnd
  0
ENDSEC
  0
SECTION
  2
ENTITIES
  0
SPLINE
  5
100
100
AcDbEntity
  8
Edge
 62
1
100
AcDbSpline
 70
8
 71
3
 72
8
 73
4
 74
0
 40
0
 40
0
 40
0
 40
0
 40
1
 40
1
 40
1
 40
1
 10
27.584363
 20
296.873393
 30
0.0
 10
19.253031
 20
296.873393
 30
0.0
 10
11.828094
 20
293.195675
 30
0.0
 10
6.800618
 20
287.391284
 30
0.0
  0
SPLINE
  5
101
100
AcDbEntity
  8
Edge
 62
1
100
AcDbSpline
 70
8
 71
3
 72
8
 73
4
 74
0
 40
0
 40
0
 40
0
 40
0
 40
1
 40
1
 40
1
 40
1
 10
9.726021
 20
283.160018
 30
0.0
 10
9.736332
 20
283.177774
 30
0.0
 10
9.746668
 20
283.195517
 30
0.0
 10
9.757027
 20
283.213245
 30
0.0
  0
LWPOLYLINE
  5
102
100
AcDbEntity
  8
Edge
 62
1
100
AcDbPolyline
 90
3
 70
0
 10
6.800618
 20
287.391284
 30
0.0
 10
6.836275
 20
286.175854
 30
0.0
 10
9.726021
 20
283.160018
 30
0.0
  0
SPLINE
  5
103
100
AcDbEntity
  8
Edge
 62
1
100
AcDbSpline
 70
8
 71
3
 72
8
 73
4
 74
0
 40
0
 40
0
 40
0
 40
0
 40
1
 40
1
 40
1
 40
1
 10
11.979114
 20
280.991158
 30
0.0
 10
6.526022
 20
273.148856
 30
0.0
 10
7.841755
 20
262.086608
 30
0.0
 10
15.091069
 20
254.826864
 30
0.0
  0
LWPOLYLINE
  5
104
100
AcDbEntity
  8
Edge
 62
1
100
AcDbPolyline
 90
2
 70
0
 10
9.757027
 20
283.213245
 30
0.0
 10
11.979114
 20
280.991158
 30
0.0
  0
SPLINE
  5
105
100
AcDbEntity
  8
Edge
 62
1
100
AcDbSpline
 70
8
 71
3
 72
8
 73
4
 74
0
 40
0
 40
0
 40
0
 40
0
 40
1
 40
1
 40
1
 40
1
 10
44.798299
 20
225.119633
 30
0.0
 10
48.737451
 20
221.180505
 30
0.0
 10
53.969040
 20
218.856507
 30
0.0
 10
59.342153
 20
218.658902
 30
0.0
  0
SPLINE
  5
106
100
AcDbEntity
  8
Edge
 62
1
100
AcDbSpline
 70
8
 71
3
 72
8
 73
4
 74
0
 40
0
 40
0
 40
0
 40
0
 40
1
 40
1
 40
1
 40
1
 10
59.342153
 20
218.658902
 30
0.0
 10
64.715266
 20
218.461298
 30
0.0
 10
69.789754
 20
220.406275
 30
0.0
 10
73.449264
 20
224.065951
 30
0.0
  0
SPLINE
  5
107
100
AcDbEntity
  8
Edge
 62
1
100
AcDbSpline
 70
8
 71
3
 72
8
 73
4
 74
0
 40
0
 40
0
 40
0
 40
0
 40
1
 40
1
 40
1
 40
1
 10
73.449264
 20
224.065951
 30
0.0
 10
81.069642
 20
231.686598
 30
0.0
 10
80.597664
 20
244.513749
 30
0.0
 10
72.395064
 20
252.716398
 30
0.0
  0
SPLINE
  5
108
100
AcDbEntity
  8
Edge
 62
1
100
AcDbSpline
 70
8
 71
3
 72
8
 73
4
 74
0
 40
0
 40
0
 40
0
 40
0
 40
1
 40
1
 40
1
 40
1
 10
72.395064
 20
252.716398
 30
0.0
 10
72.257366
 20
252.839902
 30
0.0
 10
72.118173
 20
252.961697
 30
0.0
 10
71.977519
 20
253.081750
 30
0.0
  0
LWPOLYLINE
  5
109
100
AcDbEntity
  8
Edge
 62
1
100
AcDbPolyline
 90
10
 70
0
 10
15.091069
 20
254.826864
 30
0.0
 10
15.092102
 20
254.825830
 30
0.0
 10
15.065747
 20
254.798958
 30
0.0
 10
22.219316
 20
247.644873
 30
0.0
 10
21.204907
 20
246.630465
 30
0.0
 10
36.602417
 20
231.233472
 30
0.0
 10
37.616825
 20
232.247880
 30
0.0
 10
44.770911
 20
225.093795
 30
0.0
 10
44.797782
 20
225.120150
 30
0.0
 10
44.798299
 20
225.119633
 30
0.0
  0
SPLINE
  5
10a
100
AcDbEntity
  8
Edge
 62
1
100
AcDbSpline
 70
8
 71
3
 72
8
 73
4
 74
0
 40
0
 40
0
 40
0
 40
0
 40
1
 40
1
 40
1
 40
1
 10
75.430021
 20
253.819690
 30
0.0
 10
78.617054
 20
250.630007
 30
0.0
 10
80.772117
 20
246.556271
 30
0.0
 10
81.615690
 20
242.126864
 30
0.0
  0
LWPOLYLINE
  5
10b
100
AcDbEntity
  8
Edge
 62
1
100
AcDbPolyline
 90
8
 70
0
 10
71.977519
 20
253.081750
 30
0.0
 10
65.214107
 20
259.845162
 30
0.0
 10
66.230583
 20
260.861637
 30
0.0
 10
66.220764
 20
260.871456
 30
0.0
 10
67.330774
 20
261.981466
 30
0.0
 10
75.459993
 20
253.852246
 30
0.0
 10
75.428988
 20
253.820723
 30
0.0
 10
75.430021
 20
253.819690
 30
0.0
  0
SPLINE
  5
10c
100
AcDbEntity
  8
Edge
 62
1
100
AcDbSpline
 70
8
 71
3
 72
8
 73
4
 74
0
 40
0
 40
0
 40
0
 40
0
 40
1
 40
1
 40
1
 40
1
 10
87.174007
 20
242.126864
 30
0.0
 10
85.581809
 20
235.446685
 30
0.0
 10
87.380157
 20
228.656157
 30
0.0
 10
91.967513
 20
224.026676
 30
0.0
  0
SPLINE
  5
10d
100
AcDbEntity
  8
Edge
 62
1
100
AcDbSpline
 70
8
 71
3
 72
8
 73
4
 74
0
 40
0
 40
0
 40
0
 40
0
 40
1
 40
1
 40
1
 40
1
 10
91.967513
 20
224.026676
 30
0.0
 10
95.627164
 20
220.367153
 30
0.0
 10
100.701729
 20
218.422372
 30
0.0
 10
106.074840
 20
218.620170
 30
0.0
  0
SPLINE
  5
10e
100
AcDbEntity
  8
Edge
 62
1
100
AcDbSpline
 70
8
 71
3
 72
8
 73
4
 74
0
 40
0
 40
0
 40
0
 40
0
 40
1
 40
1
 40
1
 40
1
 10
106.074840
 20
218.620170
 30
0.0
 10
111.447951
 20
218.817969
 30
0.0
 10
116.679462
 20
221.142143
 30
0.0
 10
120.618480
 20
225.081392
 30
0.0
  0
SPLINE
  5
10f
100
AcDbEntity
  8
Edge
 62
1
100
AcDbSpline
 70
8
 71
3
 72
8
 73
4
 74
0
 40
0
 40
0
 40
0
 40
0
 40
1
 40
1
 40
1
 40
1
 10
120.618480
 20
225.081392
 30
0.0
 10
120.741980
 20
225.218919
 30
0.0
 10
120.863774
 20
225.357940
 30
0.0
 10
120.983830
 20
225.498421
 30
0.0
  0
LWPOLYLINE
  5
110
100
AcDbEntity
  8
Edge
 62
1
100
AcDbPolyline
 90
2
 70
0
 10
81.615690
 20
242.126864
 30
0.0
 10
87.174007
 20
242.126864
 30
0.0
  0
SPLINE
  5
111
100
AcDbEntity
  8
Edge
 62
1
100
AcDbSpline
 70
8
 71
3
 72
8
 73
4
 74
0
 40
0
 40
0
 40
0
 40
0
 40
1
 40
1
 40
1
 40
1
 10
137.622610
 20
242.137199
 30
0.0
 10
152.736820
 20
242.248813
 30
0.0
 10
164.873140
 20
254.404835
 30
0.0
 10
164.873140
 20
269.499870
 30
0.0
  0
SPLINE
  5
112
100
AcDbEntity
  8
Edge
 62
1
100
AcDbSpline
 70
8
 71
3
 72
8
 73
4
 74
0
 40
0
 40
0
 40
0
 40
0
 40
1
 40
1
 40
1
 40
1
 10
164.873140
 20
269.499870
 30
0.0
 10
164.873140
 20
284.664668
 30
0.0
 10
152.626960
 20
296.873393
 30
0.0
 10
137.415380
 20
296.873393
 30
0.0
  0
LWPOLYLINE
  5
113
100
AcDbEntity
  8
Edge
 62
1
100
AcDbPolyline
 90
2
 70
0
 10
120.983830
 20
225.498421
 30
0.0
 10
137.622610
 20
242.137199
 30
0.0
  0
SPLINE
  5
114
100
AcDbEntity
  8
Edge
 62
1
100
AcDbSpline
 70
8
 71
3
 72
8
 73
4
 74
0
 40
0
 40
0
 40
0
 40
0
 40
1
 40
1
 40
1
 40
1
 10
29.316557
 20
292.137765
 30
0.0
 10
34.706912
 20
291.758515
 30
0.0
 10
39.780699
 20
289.451832
 30
0.0
 10
43.610258
 20
285.639453
 30
0.0
  0
LWPOLYLINE
  5
115
100
AcDbEntity
  8
Edge
 62
1
100
AcDbPolyline
 90
3
 70
0
 10
137.415380
 20
296.873393
 30
0.0
 10
27.584363
 20
296.873393
 30
0.0
 10
27.584363
 20
296.873393
 30
0.0
  0
SPLINE
  5
116
100
AcDbEntity
  8
Edge
 62
1
100
AcDbSpline
 70
8
 71
3
 72
8
 73
4
 74
0
 40
0
 40
0
 40
0
 40
0
 40
1
 40
1
 40
1
 40
1
 10
43.052669
 20
282.006600
 30
0.0
 10
42.932784
 20
282.147078
 30
0.0
 10
42.811161
 20
282.286099
 30
0.0
 10
42.687834
 20
282.423629
 30
0.0
  0
SPLINE
  5
117
100
AcDbEntity
  8
Edge
 62
1
100
AcDbSpline
 70
8
 71
3
 72
8
 73
4
 74
0
 40
0
 40
0
 40
0
 40
0
 40
1
 40
1
 40
1
 40
1
 10
42.687834
 20
282.423629
 30
0.0
 10
35.406978
 20
289.690349
 30
0.0
 10
24.308878
 20
290.988313
 30
0.0
 10
16.468245
 20
285.490108
 30
0.0
  0
LWPOLYLINE
  5
118
100
AcDbEntity
  8
Edge
 62
1
100
AcDbPolyline
 90
8
 70
0
 10
43.610258
 20
285.639453
 30
0.0
 10
43.611292
 20
285.638936
 30
0.0
 10
43.642297
 20
285.669942
 30
0.0
 10
51.952901
 20
277.358822
 30
0.0
 10
50.843408
 20
276.249329
 30
0.0
 10
50.833590
 20
276.259147
 30
0.0
 10
49.817114
 20
275.242672
 30
0.0
 10
43.052669
 20
282.006600
 30
0.0
  0
SPLINE
  5
119
100
AcDbEntity
  8
Edge
 62
1
100
AcDbSpline
 70
8
 71
3
 72
8
 73
4
 74
0
 40
0
 40
0
 40
0
 40
0
 40
1
 40
1
 40
1
 40
1
 10
14.253394
 20
287.704960
 30
0.0
 10
18.579150
 20
290.943624
 30
0.0
 10
23.926085
 20
292.517126
 30
0.0
 10
29.316557
 20
292.137765
 30
0.0
  0
LWPOLYLINE
  5
11a
100
AcDbEntity
  8
Edge
 62
1
100
AcDbPolyline
 90
2
 70
0
 10
16.468245
 20
285.490108
 30
0.0
 10
14.253394
 20
287.704960
 30
0.0
  0
LWPOLYLINE
  5
11b
100
AcDbEntity
  8
Edge
 62
1
100
AcDbPolyline
 90
1
 70
1
 10
29.316557
 20
292.137765
 30
0.0
  0
ENDSEC
  0
SECTION
  2
OBJECTS
  0
DICTIONARY
  5
C
330
0
100
AcDbDictionary
  3
ACAD_GROUP
350
D
  3
ACAD_MLINESTYLE
350
17
  0
DICTIONARY
  5
D
330
C
100
AcDbDictionary
  0
DICTIONARY
  5
1A
330
C
100
AcDbDictionary
  0
DICTIONARY
  5
17
330
C
100
AcDbDictionary
  3
STANDARD
350
18
  0
DICTIONARY
  5
19
330
C
100
AcDbDictionary
  0
ENDSEC
  0
EOF
