  0
SECTION
  2
HEADER
  9
$ACADVER
  1
AC1014
  9
$HANDSEED
  5
FFFF
  9
$INSUNITS
 70
     4
  9
$MEASUREMENT
 70
     1
  0
ENDSEC
  0
SECTION
  2
TABLES
  0
TABLE
  2
VPORT
  5
8
330
0
100
AcDbSymbolTable
 70
     4
  0
VPORT
  5
2E
330
8
100
AcDbSymbolTableRecord
100
AcDbViewportTableRecord
  2
*ACTIVE
 70
     0
 10
0.0
 20
0.0
 11
1.0
 21
1.0
 12
210.0
 22
148.5
 13
0.0
 23
0.0
 14
10.0
 24
10.0
 15
10.0
 25
10.0
 16
0.0
 26
0.0
 36
1.0
 17
0.0
 27
0.0
 37
0.0
 40
341.0
 41
1.24
 42
50.0
 43
0.0
 44
0.0
 50
0.0
 51
0.0
 71
     0
 72
   100
 73
     1
 74
     3
 75
     0
 76
     0
 77
     0
 78
     0
  0
ENDTAB
  0
TABLE
  2
LTYPE
  5
5
330
0
100
AcDbSymbolTable
 70
     1
  0
LTYPE
  5
14
330
5
100
AcDbSymbolTableRecord
100
AcDbLinetypeTableRecord
  2
BYBLOCK
 70
     0
  3

 72
    65
 73
     0
 40
0.0
  0
LTYPE
  5
15
330
5
100
AcDbSymbolTableRecord
100
AcDbLinetypeTableRecord
  2
BYLAYER
 70
     0
  3

 72
    65
 73
     0
 40
0.0
  0
LTYPE
  5
16
330
5
100
AcDbSymbolTableRecord
100
AcDbLinetypeTableRecord
  2
CONTINUOUS
 70
     0
  3
Solid line
 72
    65
 73
     0
 40
0.0
  0
ENDTAB
  0
TABLE
  2
LAYER
  5
2
100
AcDbSymbolTable
 70
3
  0
LAYER
  5
50
100
AcDbSymbolTableRecord
100
AcDbLayerTableRecord
  2
0
 70
0
  6
CONTINUOUS
  0
LAYER
  5
51
100
AcDbSymbolTableRecord
100
AcDbLayerTableRecord
  2
Edge
 70
0
  6
CONTINUOUS
  0
LAYER
  5
52
100
AcDbSymbolTableRecord
100
AcDbLayerTableRecord
  2
Guides
 70
0
  6
CONTINUOUS
  0
ENDTAB
  0
TABLE
  2
STYLE
  5
3
330
0
100
AcDbSymbolTable
 70
     1
  0
STYLE
  5
11
330
3
100
AcDbSymbolTableRecord
100
AcDbTextStyleTableRecord
  2
STANDARD
 70
     0
 40
0.0
 41
1.0
 50
0.0
 71
     0
 42
2.5
  3
txt
  4

  0
ENDTAB
  0
TABLE
  2
VIEW
  5
6
330
0
100
AcDbSymbolTable
 70
     0
  0
ENDTAB
  0
TABLE
  2
UCS
  5
7
330
0
100
AcDbSymbolTable
 70
     0
  0
ENDTAB
  0
TABLE
  2
APPID
  5
9
330
0
100
AcDbSymbolTable
 70
     2
  0
APPID
  5
12
330
9
100
AcDbSymbolTableRecord
100
AcDbRegAppTableRecord
  2
ACAD
 70
     0
  0
ENDTAB
  0
TABLE
  2
DIMSTYLE
  5
A
330
0
100
AcDbSymbolTable
 70
     1
  0
DIMSTYLE
105
27
330
A
100
AcDbSymbolTableRecord
100
AcDbDimStyleTableRecord
  2
ISO-25
 70
     0
  3

  4

  5

  6

  7

 40
1.0
 41
2.5
 42
0.625
 43
3.75
 44
1.25
 45
0.0
 46
0.0
 47
0.0
 48
0.0
140
2.5
141
2.5
142
0.0
143
0.03937007874016
144
1.0
145
0.0
146
1.0
147
0.625
 71
     0
 72
     0
 73
     0
 74
     0
 75
     0
 76
     0
 77
     1
 78
     8
170
     0
171
     3
172
     1
173
     0
174
     0
175
     0
176
     0
177
     0
178
     0
270
     2
271
     2
272
     2
273
     2
274
     3
340
11
275
     0
280
     0
281
     0
282
     0
283
     0
284
     8
285
     0
286
     0
287
     3
288
     0
  0
ENDTAB
  0
TABLE
  2
BLOCK_RECORD
  5
1
330
0
100
AcDbSymbolTable
 70
     1
  0
BLOCK_RECORD
  5
1F
330
1
100
AcDbSymbolTableRecord
100
AcDbBlockTableRecord
  2
*MODEL_SPACE
  0
BLOCK_RECORD
  5
1B
330
1
100
AcDbSymbolTableRecord
100
AcDbBlockTableRecord
  2
*PAPER_SPACE
  0
ENDTAB
  0
ENDSEC
  0
SECTION
  2
BLOCKS
  0
BLOCK
  5
20
330
1F
100
AcDbEntity
  8
0
100
AcDbBlockBegin
  2
*MODEL_SPACE
 70
     0
 10
0.0
 20
0.0
 30
0.0
  3
*MODEL_SPACE
  1

  0
ENDBLK
  5
21
330
1F
100
AcDbEntity
  8
0
100
AcDbBlockEnd
  0
BLOCK
  5
1C
330
1B
100
AcDbEntity
 67
     1
  8
0
100
AcDbBlockBegin
  2
*PAPER_SPACE
  1

  0
ENDBLK
  5
1D
330
1B
100
AcDbEntity
 67
     1
  8
0
100
AcDbBlockEnd
  0
ENDSEC
  0
SECTION
  2
ENTITIES
  0
LWPOLYLINE
  5
100
100
AcDbEntity
  8
Edge
 62
1
100
AcDbPolyline
 90
139
 70
1
 10
20.911743
 20
78.392931
 30
0.0
 10
17.832893
 20
78.223567
 30
0.0
 10
14.856491
 20
77.727594
 30
0.0
 10
12.000010
 20
76.923187
 30
0.0
 10
9.280925
 20
75.828523
 30
0.0
 10
6.716707
 20
74.461779
 30
0.0
 10
4.324831
 20
72.841129
 30
0.0
 10
2.122771
 20
70.984752
 30
0.0
 10
0.127998
 20
68.910822
 30
0.0
 10
0.163655
 20
67.695392
 30
0.0
 10
3.053402
 20
64.679556
 30
0.0
 10
3.084408
 20
64.732786
 30
0.0
 10
5.306494
 20
62.510699
 30
0.0
 10
4.363158
 20
61.004248
 30
0.0
 10
3.577242
 20
59.432617
 30
0.0
 10
2.947524
 20
57.806091
 30
0.0
 10
2.472779
 20
56.134959
 30
0.0
 10
2.151785
 20
54.429506
 30
0.0
 10
1.983317
 20
52.700020
 30
0.0
 10
1.966153
 20
50.956786
 30
0.0
 10
2.099069
 20
49.210093
 30
0.0
 10
2.810246
 20
45.747474
 30
0.0
 10
4.107061
 20
42.394457
 30
0.0
 10
4.972023
 20
40.784766
 30
0.0
 10
5.979724
 20
39.233336
 30
0.0
 10
7.128941
 20
37.750453
 30
0.0
 10
8.418449
 20
36.346405
 30
0.0
 10
8.419449
 20
36.345405
 30
0.0
 10
8.393089
 20
36.318535
 30
0.0
 10
15.546658
 20
29.164450
 30
0.0
 10
14.532249
 20
28.150042
 30
0.0
 10
29.929759
 20
12.753049
 30
0.0
 10
30.944167
 20
13.767457
 30
0.0
 10
38.098253
 20
6.613372
 30
0.0
 10
38.125123
 20
6.639722
 30
0.0
 10
38.125640
 20
6.639205
 30
0.0
 10
39.661157
 20
5.238740
 30
0.0
 10
41.304353
 20
3.995685
 30
0.0
 10
43.041740
 20
2.916030
 30
0.0
 10
44.859832
 20
2.005769
 30
0.0
 10
46.745140
 20
1.270891
 30
0.0
 10
48.684178
 20
0.717388
 30
0.0
 10
50.663459
 20
0.351253
 30
0.0
 10
52.669494
 20
0.178475
 30
0.0
 10
54.668233
 20
0.203971
 30
0.0
 10
56.625894
 20
0.425320
 30
0.0
 10
58.529394
 20
0.837507
 30
0.0
 10
60.365651
 20
1.435519
 30
0.0
 10
62.121583
 20
2.214341
 30
0.0
 10
63.784107
 20
3.168958
 30
0.0
 10
65.340142
 20
4.294357
 30
0.0
 10
66.776605
 20
5.585523
 30
0.0
 10
68.110682
 20
7.073008
 30
0.0
 10
69.255624
 20
8.668120
 30
0.0
 10
70.211961
 20
10.356457
 30
0.0
 10
70.980224
 20
12.123619
 30
0.0
 10
71.560941
 20
13.955204
 30
0.0
 10
71.954643
 20
15.836813
 30
0.0
 10
72.161860
 20
17.754044
 30
0.0
 10
72.183122
 20
19.692496
 30
0.0
 10
72.018957
 20
21.637769
 30
0.0
 10
71.669898
 20
23.575460
 30
0.0
 10
71.136472
 20
25.491171
 30
0.0
 10
70.419211
 20
27.370499
 30
0.0
 10
69.518644
 20
29.199044
 30
0.0
 10
68.435300
 20
30.962405
 30
0.0
 10
67.169711
 20
32.646180
 30
0.0
 10
65.722405
 20
34.235970
 30
0.0
 10
65.304860
 20
34.601322
 30
0.0
 10
58.541448
 20
41.364734
 30
0.0
 10
59.557924
 20
42.381209
 30
0.0
 10
59.548124
 20
42.391009
 30
0.0
 10
60.658134
 20
43.501019
 30
0.0
 10
68.787353
 20
35.371799
 30
0.0
 10
68.756353
 20
35.340279
 30
0.0
 10
68.757353
 20
35.339279
 30
0.0
 10
70.949766
 20
32.789513
 30
0.0
 10
72.728985
 20
29.957762
 30
0.0
 10
74.068805
 20
26.893564
 30
0.0
 10
74.943022
 20
23.646453
 30
0.0
 10
80.501339
 20
23.646453
 30
0.0
 10
80.062022
 20
21.140650
 30
0.0
 10
79.933519
 20
18.651119
 30
0.0
 10
80.108781
 20
16.204479
 30
0.0
 10
80.580759
 20
13.827347
 30
0.0
 10
81.342404
 20
11.546342
 30
0.0
 10
82.386666
 20
9.388082
 30
0.0
 10
83.706496
 20
7.379183
 30
0.0
 10
85.294845
 20
5.546265
 30
0.0
 10
86.731358
 20
4.255159
 30
0.0
 10
88.287436
 20
3.129823
 30
0.0
 10
89.949998
 20
2.175271
 30
0.0
 10
91.705960
 20
1.396518
 30
0.0
 10
93.542241
 20
0.798577
 30
0.0
 10
95.445758
 20
0.386461
 30
0.0
 10
97.403429
 20
0.165184
 30
0.0
 10
99.402171
 20
0.139761
 30
0.0
 10
101.408202
 20
0.312610
 30
0.0
 10
103.387471
 20
0.678816
 30
0.0
 10
105.326491
 20
1.232385
 30
0.0
 10
107.211775
 20
1.967327
 30
0.0
 10
109.029836
 20
2.877649
 30
0.0
 10
110.767187
 20
3.957360
 30
0.0
 10
112.410341
 20
5.200468
 30
0.0
 10
113.945810
 20
6.600981
 30
0.0
 10
114.311160
 20
7.018010
 30
0.0
 10
130.949940
 20
23.656788
 30
0.0
 10
133.746721
 20
23.816638
 30
0.0
 10
136.460293
 20
24.245441
 30
0.0
 10
139.077238
 20
24.929859
 30
0.0
 10
141.584143
 20
25.856553
 30
0.0
 10
143.967590
 20
27.012187
 30
0.0
 10
146.214165
 20
28.383421
 30
0.0
 10
148.310451
 20
29.956919
 30
0.0
 10
150.243034
 20
31.719341
 30
0.0
 10
151.998497
 20
33.657350
 30
0.0
 10
153.563424
 20
35.757608
 30
0.0
 10
154.924401
 20
38.006778
 30
0.0
 10
156.068010
 20
40.391520
 30
0.0
 10
156.980838
 20
42.898497
 30
0.0
 10
157.649468
 20
45.514371
 30
0.0
 10
158.060483
 20
48.225805
 30
0.0
 10
158.200470
 20
51.019459
 30
0.0
 10
158.059226
 20
53.825958
 30
0.0
 10
157.644557
 20
56.549621
 30
0.0
 10
156.970058
 20
59.176893
 30
0.0
 10
156.049323
 20
61.694221
 30
0.0
 10
154.895949
 20
64.088052
 30
0.0
 10
153.523529
 20
66.344831
 30
0.0
 10
151.945659
 20
68.451005
 30
0.0
 10
150.175932
 20
70.393020
 30
0.0
 10
148.227946
 20
72.157323
 30
0.0
 10
146.115293
 20
73.730359
 30
0.0
 10
143.851570
 20
75.098576
 30
0.0
 10
141.450370
 20
76.248419
 30
0.0
 10
138.925290
 20
77.166335
 30
0.0
 10
136.289923
 20
77.838770
 30
0.0
 10
133.557865
 20
78.252170
 30
0.0
 10
130.742710
 20
78.392982
 30
0.0
  0
LWPOLYLINE
  5
101
100
AcDbEntity
  8
Edge
 62
1
100
AcDbPolyline
 90
41
 70
1
 10
22.643937
 20
73.657303
 30
0.0
 10
24.648669
 20
73.425560
 30
0.0
 10
26.612852
 20
73.018062
 30
0.0
 10
28.525615
 20
72.439751
 30
0.0
 10
30.376086
 20
71.695571
 30
0.0
 10
32.153395
 20
70.790462
 30
0.0
 10
33.846670
 20
69.729368
 30
0.0
 10
35.445042
 20
68.517230
 30
0.0
 10
36.937638
 20
67.158991
 30
0.0
 10
36.938638
 20
67.158474
 30
0.0
 10
36.969648
 20
67.189484
 30
0.0
 10
45.280252
 20
58.878364
 30
0.0
 10
44.170759
 20
57.768871
 30
0.0
 10
44.160959
 20
57.778671
 30
0.0
 10
43.144483
 20
56.762196
 30
0.0
 10
36.380049
 20
63.526138
 30
0.0
 10
36.015214
 20
63.943167
 30
0.0
 10
34.607047
 20
65.235529
 30
0.0
 10
33.119777
 20
66.386786
 30
0.0
 10
31.563768
 20
67.395726
 30
0.0
 10
29.949381
 20
68.261137
 30
0.0
 10
28.286981
 20
68.981808
 30
0.0
 10
26.586932
 20
69.556525
 30
0.0
 10
23.115336
 20
70.263254
 30
0.0
 10
21.364517
 20
70.392841
 30
0.0
 10
19.617501
 20
70.371626
 30
0.0
 10
17.884652
 20
70.198399
 30
0.0
 10
16.176333
 20
69.871947
 30
0.0
 10
14.502907
 20
69.391057
 30
0.0
 10
12.874738
 20
68.754519
 30
0.0
 10
11.302190
 20
67.961119
 30
0.0
 10
9.795625
 20
67.009646
 30
0.0
 10
7.580774
 20
69.224498
 30
0.0
 10
9.248891
 20
70.360381
 30
0.0
 10
11.001286
 20
71.336783
 30
0.0
 10
12.826504
 20
72.150334
 30
0.0
 10
14.713087
 20
72.797660
 30
0.0
 10
16.649578
 20
73.275392
 30
0.0
 10
18.624522
 20
73.580158
 30
0.0
 10
20.626460
 20
73.708585
 30
0.0
 10
22.643937
 20
73.657303
 30
0.0
  0
ENDSEC
  0
SECTION
  2
OBJECTS
  0
DICTIONARY
  5
C
330
0
100
AcDbDictionary
  3
ACAD_GROUP
350
D
  3
ACAD_MLINESTYLE
350
17
  0
DICTIONARY
  5
D
330
C
100
AcDbDictionary
  0
DICTIONARY
  5
1A
330
C
100
AcDbDictionary
  0
DICTIONARY
  5
17
330
C
100
AcDbDictionary
  3
STANDARD
350
18
  0
DICTIONARY
  5
19
330
C
100
AcDbDictionary
  0
ENDSEC
  0
EOF
