  0
SECTION
  2
HEADER
  9
$ACADVER
  1
AC1014
  9
$HANDSEED
  5
FFFF
  9
$INSUNITS
 70
     4
  9
$MEASUREMENT
 70
     1
  0
ENDSEC
  0
SECTION
  2
TABLES
  0
TABLE
  2
VPORT
  5
8
330
0
100
AcDbSymbolTable
 70
     4
  0
VPORT
  5
2E
330
8
100
AcDbSymbolTableRecord
100
AcDbViewportTableRecord
  2
*ACTIVE
 70
     0
 10
0.0
 20
0.0
 11
1.0
 21
1.0
 12
210.0
 22
148.5
 13
0.0
 23
0.0
 14
10.0
 24
10.0
 15
10.0
 25
10.0
 16
0.0
 26
0.0
 36
1.0
 17
0.0
 27
0.0
 37
0.0
 40
341.0
 41
1.24
 42
50.0
 43
0.0
 44
0.0
 50
0.0
 51
0.0
 71
     0
 72
   100
 73
     1
 74
     3
 75
     0
 76
     0
 77
     0
 78
     0
  0
ENDTAB
  0
TABLE
  2
LTYPE
  5
5
330
0
100
AcDbSymbolTable
 70
     1
  0
LTYPE
  5
14
330
5
100
AcDbSymbolTableRecord
100
AcDbLinetypeTableRecord
  2
BYBLOCK
 70
     0
  3

 72
    65
 73
     0
 40
0.0
  0
LTYPE
  5
15
330
5
100
AcDbSymbolTableRecord
100
AcDbLinetypeTableRecord
  2
BYLAYER
 70
     0
  3

 72
    65
 73
     0
 40
0.0
  0
LTYPE
  5
16
330
5
100
AcDbSymbolTableRecord
100
AcDbLinetypeTableRecord
  2
CONTINUOUS
 70
     0
  3
Solid line
 72
    65
 73
     0
 40
0.0
  0
ENDTAB
  0
TABLE
  2
LAYER
  5
2
100
AcDbSymbolTable
 70
4
  0
LAYER
  5
50
100
AcDbSymbolTableRecord
100
AcDbLayerTableRecord
  2
0
 70
0
  6
CONTINUOUS
  0
LAYER
  5
51
100
AcDbSymbolTableRecord
100
AcDbLayerTableRecord
  2
Cuts
 70
0
  6
CONTINUOUS
  0
LAYER
  5
52
100
AcDbSymbolTableRecord
100
AcDbLayerTableRecord
  2
Guides
 70
0
  6
CONTINUOUS
  0
LAYER
  5
53
100
AcDbSymbolTableRecord
100
AcDbLayerTableRecord
  2
Silk
 70
0
  6
CONTINUOUS
  0
ENDTAB
  0
TABLE
  2
STYLE
  5
3
330
0
100
AcDbSymbolTable
 70
     1
  0
STYLE
  5
11
330
3
100
AcDbSymbolTableRecord
100
AcDbTextStyleTableRecord
  2
STANDARD
 70
     0
 40
0.0
 41
1.0
 50
0.0
 71
     0
 42
2.5
  3
txt
  4

  0
ENDTAB
  0
TABLE
  2
VIEW
  5
6
330
0
100
AcDbSymbolTable
 70
     0
  0
ENDTAB
  0
TABLE
  2
UCS
  5
7
330
0
100
AcDbSymbolTable
 70
     0
  0
ENDTAB
  0
TABLE
  2
APPID
  5
9
330
0
100
AcDbSymbolTable
 70
     2
  0
APPID
  5
12
330
9
100
AcDbSymbolTableRecord
100
AcDbRegAppTableRecord
  2
ACAD
 70
     0
  0
ENDTAB
  0
TABLE
  2
DIMSTYLE
  5
A
330
0
100
AcDbSymbolTable
 70
     1
  0
DIMSTYLE
105
27
330
A
100
AcDbSymbolTableRecord
100
AcDbDimStyleTableRecord
  2
ISO-25
 70
     0
  3

  4

  5

  6

  7

 40
1.0
 41
2.5
 42
0.625
 43
3.75
 44
1.25
 45
0.0
 46
0.0
 47
0.0
 48
0.0
140
2.5
141
2.5
142
0.0
143
0.03937007874016
144
1.0
145
0.0
146
1.0
147
0.625
 71
     0
 72
     0
 73
     0
 74
     0
 75
     0
 76
     0
 77
     1
 78
     8
170
     0
171
     3
172
     1
173
     0
174
     0
175
     0
176
     0
177
     0
178
     0
270
     2
271
     2
272
     2
273
     2
274
     3
340
11
275
     0
280
     0
281
     0
282
     0
283
     0
284
     8
285
     0
286
     0
287
     3
288
     0
  0
ENDTAB
  0
TABLE
  2
BLOCK_RECORD
  5
1
330
0
100
AcDbSymbolTable
 70
     1
  0
BLOCK_RECORD
  5
1F
330
1
100
AcDbSymbolTableRecord
100
AcDbBlockTableRecord
  2
*MODEL_SPACE
  0
BLOCK_RECORD
  5
1B
330
1
100
AcDbSymbolTableRecord
100
AcDbBlockTableRecord
  2
*PAPER_SPACE
  0
ENDTAB
  0
ENDSEC
  0
SECTION
  2
BLOCKS
  0
BLOCK
  5
20
330
1F
100
AcDbEntity
  8
0
100
AcDbBlockBegin
  2
*MODEL_SPACE
 70
     0
 10
0.0
 20
0.0
 30
0.0
  3
*MODEL_SPACE
  1

  0
ENDBLK
  5
21
330
1F
100
AcDbEntity
  8
0
100
AcDbBlockEnd
  0
BLOCK
  5
1C
330
1B
100
AcDbEntity
 67
     1
  8
0
100
AcDbBlockBegin
  2
*PAPER_SPACE
  1

  0
ENDBLK
  5
1D
330
1B
100
AcDbEntity
 67
     1
  8
0
100
AcDbBlockEnd
  0
ENDSEC
  0
SECTION
  2
ENTITIES
  0
LWPOLYLINE
  5
100
100
AcDbEntity
  8
Cuts
 62
7
100
AcDbPolyline
 90
149
 70
1
 10
18.017299
 20
69.045096
 30
0.0
 10
15.603156
 20
68.925605
 30
0.0
 10
13.268418
 20
68.577284
 30
0.0
 10
11.024539
 20
68.015351
 30
0.0
 10
8.882973
 20
67.255024
 30
0.0
 10
8.530034
 20
66.616581
 30
0.0
 10
8.481148
 20
66.151568
 30
0.0
 10
8.586867
 20
65.580708
 30
0.0
 10
8.902867
 20
65.035619
 30
0.0
 10
9.343540
 20
64.748745
 30
0.0
 10
10.239996
 20
64.653632
 30
0.0
 10
12.456704
 20
65.030547
 30
0.0
 10
14.696589
 20
65.129542
 30
0.0
 10
16.932046
 20
64.950152
 30
0.0
 10
19.135467
 20
64.491912
 30
0.0
 10
21.279248
 20
63.754358
 30
0.0
 10
23.335784
 20
62.737025
 30
0.0
 10
25.277468
 20
61.439447
 30
0.0
 10
27.076694
 20
59.861161
 30
0.0
 10
31.888287
 20
55.050085
 30
0.0
 10
31.942536
 20
55.003048
 30
0.0
 10
32.398312
 20
54.316561
 30
0.0
 10
32.550238
 20
53.535695
 30
0.0
 10
32.398312
 20
52.754829
 30
0.0
 10
31.942536
 20
52.068343
 30
0.0
 10
31.269201
 20
51.618387
 30
0.0
 10
30.474925
 20
51.460382
 30
0.0
 10
29.680649
 20
51.618387
 30
0.0
 10
29.007314
 20
52.068343
 30
0.0
 10
28.611990
 20
52.631616
 30
0.0
 10
24.183836
 20
57.059252
 30
0.0
 10
21.993262
 20
58.868592
 30
0.0
 10
19.585760
 20
60.182111
 30
0.0
 10
17.037830
 20
60.997889
 30
0.0
 10
14.425972
 20
61.314005
 30
0.0
 10
11.826686
 20
61.128541
 30
0.0
 10
9.316471
 20
60.439575
 30
0.0
 10
6.971826
 20
59.245188
 30
0.0
 10
4.869253
 20
57.543461
 30
0.0
 10
3.900837
 20
56.575044
 30
0.0
 10
2.199109
 20
54.472471
 30
0.0
 10
1.004722
 20
52.127826
 30
0.0
 10
0.315756
 20
49.617611
 30
0.0
 10
0.130291
 20
47.018325
 30
0.0
 10
0.446408
 20
44.406467
 30
0.0
 10
1.262186
 20
41.858537
 30
0.0
 10
2.575705
 20
39.451035
 30
0.0
 10
4.385045
 20
37.260461
 30
0.0
 10
9.246763
 20
32.398743
 30
0.0
 10
9.218861
 20
32.370840
 30
0.0
 10
9.237444
 20
32.354803
 30
0.0
 10
9.687342
 20
31.700117
 30
0.0
 10
9.870584
 20
30.951486
 30
0.0
 10
9.782343
 20
30.185824
 30
0.0
 10
9.417795
 20
29.480043
 30
0.0
 10
25.551694
 20
13.346144
 30
0.0
 10
26.216992
 20
13.695899
 30
0.0
 10
26.941085
 20
13.798903
 30
0.0
 10
27.658554
 20
13.656923
 30
0.0
 10
28.303981
 20
13.271730
 30
0.0
 10
28.338604
 20
13.306869
 30
0.0
 10
33.376539
 20
8.268934
 30
0.0
 10
35.567112
 20
6.459595
 30
0.0
 10
37.974614
 20
5.146077
 30
0.0
 10
40.522544
 20
4.330299
 30
0.0
 10
43.134402
 20
4.014182
 30
0.0
 10
45.733688
 20
4.199646
 30
0.0
 10
48.243904
 20
4.888611
 30
0.0
 10
50.588549
 20
6.082998
 30
0.0
 10
52.691122
 20
7.784726
 30
0.0
 10
53.659539
 20
8.753142
 30
0.0
 10
55.361266
 20
10.855716
 30
0.0
 10
56.555653
 20
13.200360
 30
0.0
 10
57.244618
 20
15.710576
 30
0.0
 10
57.430082
 20
18.309863
 30
0.0
 10
57.113966
 20
20.921721
 30
0.0
 10
56.298188
 20
23.469651
 30
0.0
 10
54.984669
 20
25.877152
 30
0.0
 10
53.175330
 20
28.067726
 30
0.0
 10
48.493446
 20
32.749093
 30
0.0
 10
48.265549
 20
32.944944
 30
0.0
 10
47.816138
 20
33.621749
 30
0.0
 10
47.666334
 20
34.391626
 30
0.0
 10
47.816138
 20
35.161504
 30
0.0
 10
48.265549
 20
35.838308
 30
0.0
 10
48.942354
 20
36.287719
 30
0.0
 10
49.712231
 20
36.437523
 30
0.0
 10
50.482108
 20
36.287719
 30
0.0
 10
51.158912
 20
35.838307
 30
0.0
 10
51.420393
 20
35.516878
 30
0.0
 10
56.067655
 20
30.870133
 30
0.0
 10
57.378842
 20
29.410260
 30
0.0
 10
58.501816
 20
27.851633
 30
0.0
 10
59.437063
 20
26.209377
 30
0.0
 10
60.185068
 20
24.498617
 30
0.0
 10
60.746315
 20
22.734477
 30
0.0
 10
61.121290
 20
20.932083
 30
0.0
 10
61.310478
 20
19.106559
 30
0.0
 10
61.314363
 20
17.273030
 30
0.0
 10
67.016857
 20
17.273030
 30
0.0
 10
67.462595
 20
14.067572
 30
0.0
 10
67.903093
 20
12.499118
 30
0.0
 10
68.488703
 20
10.967337
 30
0.0
 10
69.219448
 20
9.482599
 30
0.0
 10
70.095346
 20
8.055272
 30
0.0
 10
71.116419
 20
6.695723
 30
0.0
 10
72.282686
 20
5.414322
 30
0.0
 10
73.653109
 20
4.174852
 30
0.0
 10
75.111772
 20
3.100645
 30
0.0
 10
76.646068
 20
2.191700
 30
0.0
 10
78.243392
 20
1.448018
 30
0.0
 10
79.891139
 20
0.869598
 30
0.0
 10
81.576702
 20
0.456442
 30
0.0
 10
83.287477
 20
0.208548
 30
0.0
 10
85.010857
 20
0.125917
 30
0.0
 10
86.734237
 20
0.208548
 30
0.0
 10
88.445011
 20
0.456442
 30
0.0
 10
90.130573
 20
0.869598
 30
0.0
 10
91.778319
 20
1.448018
 30
0.0
 10
93.375641
 20
2.191699
 30
0.0
 10
94.909935
 20
3.100644
 30
0.0
 10
96.368595
 20
4.174851
 30
0.0
 10
97.739015
 20
5.414320
 30
0.0
 10
126.730043
 20
34.405349
 30
0.0
 10
128.053711
 20
35.880682
 30
0.0
 10
129.185372
 20
37.456643
 30
0.0
 10
130.125497
 20
39.117638
 30
0.0
 10
130.874556
 20
40.848071
 30
0.0
 10
131.433017
 20
42.632350
 30
0.0
 10
131.801351
 20
44.454881
 30
0.0
 10
131.980026
 20
46.300068
 30
0.0
 10
131.969513
 20
48.152317
 30
0.0
 10
132.017574
 20
49.256641
 30
0.0
 10
131.904403
 20
51.285470
 30
0.0
 10
131.572148
 20
53.254418
 30
0.0
 10
131.031705
 20
55.153684
 30
0.0
 10
130.293966
 20
56.973473
 30
0.0
 10
129.369825
 20
58.703984
 30
0.0
 10
128.270177
 20
60.335421
 30
0.0
 10
127.005914
 20
61.857985
 30
0.0
 10
125.587930
 20
63.261878
 30
0.0
 10
124.027120
 20
64.537302
 30
0.0
 10
122.334377
 20
65.674459
 30
0.0
 10
120.520594
 20
66.663551
 30
0.0
 10
118.596665
 20
67.494779
 30
0.0
 10
116.573484
 20
68.158346
 30
0.0
 10
114.461945
 20
68.644454
 30
0.0
 10
112.272941
 20
68.943303
 30
0.0
 10
110.017367
 20
69.045097
 30
0.0
  0
ENDSEC
  0
SECTION
  2
OBJECTS
  0
DICTIONARY
  5
C
330
0
100
AcDbDictionary
  3
ACAD_GROUP
350
D
  3
ACAD_MLINESTYLE
350
17
  0
DICTIONARY
  5
D
330
C
100
AcDbDictionary
  0
DICTIONARY
  5
1A
330
C
100
AcDbDictionary
  0
DICTIONARY
  5
17
330
C
100
AcDbDictionary
  3
STANDARD
350
18
  0
DICTIONARY
  5
19
330
C
100
AcDbDictionary
  0
ENDSEC
  0
EOF
