  0
SECTION
  2
HEADER
  9
$ACADVER
  1
AC1014
  9
$HANDSEED
  5
FFFF
  9
$INSUNITS
 70
     4
  9
$MEASUREMENT
 70
     1
  0
ENDSEC
  0
SECTION
  2
TABLES
  0
TABLE
  2
VPORT
  5
8
330
0
100
AcDbSymbolTable
 70
     4
  0
VPORT
  5
2E
330
8
100
AcDbSymbolTableRecord
100
AcDbViewportTableRecord
  2
*ACTIVE
 70
     0
 10
0.0
 20
0.0
 11
1.0
 21
1.0
 12
210.0
 22
148.5
 13
0.0
 23
0.0
 14
10.0
 24
10.0
 15
10.0
 25
10.0
 16
0.0
 26
0.0
 36
1.0
 17
0.0
 27
0.0
 37
0.0
 40
341.0
 41
1.24
 42
50.0
 43
0.0
 44
0.0
 50
0.0
 51
0.0
 71
     0
 72
   100
 73
     1
 74
     3
 75
     0
 76
     0
 77
     0
 78
     0
  0
ENDTAB
  0
TABLE
  2
LTYPE
  5
5
330
0
100
AcDbSymbolTable
 70
     1
  0
LTYPE
  5
14
330
5
100
AcDbSymbolTableRecord
100
AcDbLinetypeTableRecord
  2
BYBLOCK
 70
     0
  3

 72
    65
 73
     0
 40
0.0
  0
LTYPE
  5
15
330
5
100
AcDbSymbolTableRecord
100
AcDbLinetypeTableRecord
  2
BYLAYER
 70
     0
  3

 72
    65
 73
     0
 40
0.0
  0
LTYPE
  5
16
330
5
100
AcDbSymbolTableRecord
100
AcDbLinetypeTableRecord
  2
CONTINUOUS
 70
     0
  3
Solid line
 72
    65
 73
     0
 40
0.0
  0
ENDTAB
  0
TABLE
  2
LAYER
  5
2
100
AcDbSymbolTable
 70
4
  0
LAYER
  5
50
100
AcDbSymbolTableRecord
100
AcDbLayerTableRecord
  2
0
 70
0
  6
CONTINUOUS
  0
LAYER
  5
51
100
AcDbSymbolTableRecord
100
AcDbLayerTableRecord
  2
Cuts
 70
0
  6
CONTINUOUS
  0
LAYER
  5
52
100
AcDbSymbolTableRecord
100
AcDbLayerTableRecord
  2
Guides
 70
0
  6
CONTINUOUS
  0
LAYER
  5
53
100
AcDbSymbolTableRecord
100
AcDbLayerTableRecord
  2
Silk
 70
0
  6
CONTINUOUS
  0
ENDTAB
  0
TABLE
  2
STYLE
  5
3
330
0
100
AcDbSymbolTable
 70
     1
  0
STYLE
  5
11
330
3
100
AcDbSymbolTableRecord
100
AcDbTextStyleTableRecord
  2
STANDARD
 70
     0
 40
0.0
 41
1.0
 50
0.0
 71
     0
 42
2.5
  3
txt
  4

  0
ENDTAB
  0
TABLE
  2
VIEW
  5
6
330
0
100
AcDbSymbolTable
 70
     0
  0
ENDTAB
  0
TABLE
  2
UCS
  5
7
330
0
100
AcDbSymbolTable
 70
     0
  0
ENDTAB
  0
TABLE
  2
APPID
  5
9
330
0
100
AcDbSymbolTable
 70
     2
  0
APPID
  5
12
330
9
100
AcDbSymbolTableRecord
100
AcDbRegAppTableRecord
  2
ACAD
 70
     0
  0
ENDTAB
  0
TABLE
  2
DIMSTYLE
  5
A
330
0
100
AcDbSymbolTable
 70
     1
  0
DIMSTYLE
105
27
330
A
100
AcDbSymbolTableRecord
100
AcDbDimStyleTableRecord
  2
ISO-25
 70
     0
  3

  4

  5

  6

  7

 40
1.0
 41
2.5
 42
0.625
 43
3.75
 44
1.25
 45
0.0
 46
0.0
 47
0.0
 48
0.0
140
2.5
141
2.5
142
0.0
143
0.03937007874016
144
1.0
145
0.0
146
1.0
147
0.625
 71
     0
 72
     0
 73
     0
 74
     0
 75
     0
 76
     0
 77
     1
 78
     8
170
     0
171
     3
172
     1
173
     0
174
     0
175
     0
176
     0
177
     0
178
     0
270
     2
271
     2
272
     2
273
     2
274
     3
340
11
275
     0
280
     0
281
     0
282
     0
283
     0
284
     8
285
     0
286
     0
287
     3
288
     0
  0
ENDTAB
  0
TABLE
  2
BLOCK_RECORD
  5
1
330
0
100
AcDbSymbolTable
 70
     1
  0
BLOCK_RECORD
  5
1F
330
1
100
AcDbSymbolTableRecord
100
AcDbBlockTableRecord
  2
*MODEL_SPACE
  0
BLOCK_RECORD
  5
1B
330
1
100
AcDbSymbolTableRecord
100
AcDbBlockTableRecord
  2
*PAPER_SPACE
  0
ENDTAB
  0
ENDSEC
  0
SECTION
  2
BLOCKS
  0
BLOCK
  5
20
330
1F
100
AcDbEntity
  8
0
100
AcDbBlockBegin
  2
*MODEL_SPACE
 70
     0
 10
0.0
 20
0.0
 30
0.0
  3
*MODEL_SPACE
  1

  0
ENDBLK
  5
21
330
1F
100
AcDbEntity
  8
0
100
AcDbBlockEnd
  0
BLOCK
  5
1C
330
1B
100
AcDbEntity
 67
     1
  8
0
100
AcDbBlockBegin
  2
*PAPER_SPACE
  1

  0
ENDBLK
  5
1D
330
1B
100
AcDbEntity
 67
     1
  8
0
100
AcDbBlockEnd
  0
ENDSEC
  0
SECTION
  2
ENTITIES
  0
LWPOLYLINE
  5
100
100
AcDbEntity
  8
Guides
 62
3
100
AcDbPolyline
 90
4
 70
1
 10
36.017358
 20
69.045220
 30
0.0
 10
92.017358
 20
69.045220
 30
0.0
 10
92.017358
 20
35.045220
 30
0.0
 10
36.017358
 20
35.045220
 30
0.0
  0
LWPOLYLINE
  5
101
100
AcDbEntity
  8
Guides
 62
3
100
AcDbPolyline
 90
69
 70
1
 10
17.890360
 20
68.996184
 30
0.0
 10
109.966030
 20
68.996184
 30
0.0
 10
112.140460
 20
68.898317
 30
0.0
 10
114.278059
 20
68.608339
 30
0.0
 10
116.364403
 20
68.131681
 30
0.0
 10
118.385066
 20
67.473775
 30
0.0
 10
120.325620
 20
66.640054
 30
0.0
 10
122.171641
 20
65.635949
 30
0.0
 10
123.908703
 20
64.466894
 30
0.0
 10
125.522379
 20
63.138320
 30
0.0
 10
126.983811
 20
61.671341
 30
0.0
 10
128.269772
 20
60.092194
 30
0.0
 10
129.374286
 20
58.413993
 30
0.0
 10
130.291380
 20
56.649853
 30
0.0
 10
131.015076
 20
54.812887
 30
0.0
 10
131.539400
 20
52.916211
 30
0.0
 10
131.858377
 20
50.972938
 30
0.0
 10
131.966030
 20
48.996184
 30
0.0
 10
131.966030
 20
43.050837
 30
0.0
 10
131.858377
 20
41.074083
 30
0.0
 10
131.539400
 20
39.130810
 30
0.0
 10
131.015076
 20
37.234134
 30
0.0
 10
130.291380
 20
35.397168
 30
0.0
 10
129.374286
 20
33.633028
 30
0.0
 10
128.269772
 20
31.954827
 30
0.0
 10
126.983811
 20
30.375680
 30
0.0
 10
125.522379
 20
28.908701
 30
0.0
 10
123.908703
 20
27.580127
 30
0.0
 10
122.171641
 20
26.411072
 30
0.0
 10
120.325620
 20
25.406968
 30
0.0
 10
118.385066
 20
24.573246
 30
0.0
 10
116.364403
 20
23.915341
 30
0.0
 10
114.278059
 20
23.438682
 30
0.0
 10
112.140460
 20
23.148704
 30
0.0
 10
109.966030
 20
23.050837
 30
0.0
 10
17.890360
 20
23.050837
 30
0.0
 10
15.715930
 20
23.148704
 30
0.0
 10
13.578331
 20
23.438682
 30
0.0
 10
11.491987
 20
23.915341
 30
0.0
 10
9.471324
 20
24.573246
 30
0.0
 10
7.530770
 20
25.406968
 30
0.0
 10
5.684749
 20
26.411072
 30
0.0
 10
3.947687
 20
27.580127
 30
0.0
 10
2.334011
 20
28.908701
 30
0.0
 10
0.872579
 20
30.375680
 30
0.0
 10
-0.413382
 20
31.954827
 30
0.0
 10
-1.517896
 20
33.633028
 30
0.0
 10
-2.434990
 20
35.397168
 30
0.0
 10
-3.158686
 20
37.234134
 30
0.0
 10
-3.683010
 20
39.130810
 30
0.0
 10
-4.001987
 20
41.074083
 30
0.0
 10
-4.109640
 20
43.050837
 30
0.0
 10
-4.109640
 20
48.996184
 30
0.0
 10
-4.001987
 20
50.972938
 30
0.0
 10
-3.683010
 20
52.916211
 30
0.0
 10
-3.158686
 20
54.812887
 30
0.0
 10
-2.434990
 20
56.649853
 30
0.0
 10
-1.517896
 20
58.413993
 30
0.0
 10
-0.413382
 20
60.092194
 30
0.0
 10
0.872579
 20
61.671341
 30
0.0
 10
2.334011
 20
63.138320
 30
0.0
 10
3.947687
 20
64.466894
 30
0.0
 10
5.684749
 20
65.635949
 30
0.0
 10
7.530770
 20
66.640054
 30
0.0
 10
9.471324
 20
67.473775
 30
0.0
 10
11.491987
 20
68.131681
 30
0.0
 10
13.578331
 20
68.608339
 30
0.0
 10
15.715930
 20
68.898317
 30
0.0
 10
17.890360
 20
68.996184
 30
0.0
  0
LWPOLYLINE
  5
102
100
AcDbEntity
  8
Guides
 62
3
100
AcDbPolyline
 90
8
 70
1
 10
31.585511
 20
29.896368
 30
0.0
 10
28.844209
 20
32.094919
 30
0.0
 10
26.102907
 20
29.896368
 30
0.0
 10
28.301459
 20
32.637669
 30
0.0
 10
26.102907
 20
35.378971
 30
0.0
 10
28.844209
 20
33.180420
 30
0.0
 10
31.585511
 20
35.378971
 30
0.0
 10
29.386959
 20
32.637669
 30
0.0
  0
ENDSEC
  0
SECTION
  2
OBJECTS
  0
DICTIONARY
  5
C
330
0
100
AcDbDictionary
  3
ACAD_GROUP
350
D
  3
ACAD_MLINESTYLE
350
17
  0
DICTIONARY
  5
D
330
C
100
AcDbDictionary
  0
DICTIONARY
  5
1A
330
C
100
AcDbDictionary
  0
DICTIONARY
  5
17
330
C
100
AcDbDictionary
  3
STANDARD
350
18
  0
DICTIONARY
  5
19
330
C
100
AcDbDictionary
  0
ENDSEC
  0
EOF
