  0
SECTION
  2
HEADER
  9
$ACADVER
  1
AC1014
  9
$HANDSEED
  5
FFFF
  9
$INSUNITS
 70
     4
  9
$MEASUREMENT
 70
     1
  0
ENDSEC
  0
SECTION
  2
TABLES
  0
TABLE
  2
VPORT
  5
8
330
0
100
AcDbSymbolTable
 70
     4
  0
VPORT
  5
2E
330
8
100
AcDbSymbolTableRecord
100
AcDbViewportTableRecord
  2
*ACTIVE
 70
     0
 10
0.0
 20
0.0
 11
1.0
 21
1.0
 12
210.0
 22
148.5
 13
0.0
 23
0.0
 14
10.0
 24
10.0
 15
10.0
 25
10.0
 16
0.0
 26
0.0
 36
1.0
 17
0.0
 27
0.0
 37
0.0
 40
341.0
 41
1.24
 42
50.0
 43
0.0
 44
0.0
 50
0.0
 51
0.0
 71
     0
 72
   100
 73
     1
 74
     3
 75
     0
 76
     0
 77
     0
 78
     0
  0
ENDTAB
  0
TABLE
  2
LTYPE
  5
5
330
0
100
AcDbSymbolTable
 70
     1
  0
LTYPE
  5
14
330
5
100
AcDbSymbolTableRecord
100
AcDbLinetypeTableRecord
  2
BYBLOCK
 70
     0
  3

 72
    65
 73
     0
 40
0.0
  0
LTYPE
  5
15
330
5
100
AcDbSymbolTableRecord
100
AcDbLinetypeTableRecord
  2
BYLAYER
 70
     0
  3

 72
    65
 73
     0
 40
0.0
  0
LTYPE
  5
16
330
5
100
AcDbSymbolTableRecord
100
AcDbLinetypeTableRecord
  2
CONTINUOUS
 70
     0
  3
Solid line
 72
    65
 73
     0
 40
0.0
  0
ENDTAB
  0
TABLE
  2
LAYER
  5
2
100
AcDbSymbolTable
 70
4
  0
LAYER
  5
50
100
AcDbSymbolTableRecord
100
AcDbLayerTableRecord
  2
0
 70
0
  6
CONTINUOUS
  0
LAYER
  5
51
100
AcDbSymbolTableRecord
100
AcDbLayerTableRecord
  2
Cuts
 70
0
  6
CONTINUOUS
  0
LAYER
  5
52
100
AcDbSymbolTableRecord
100
AcDbLayerTableRecord
  2
Guides
 70
0
  6
CONTINUOUS
  0
LAYER
  5
53
100
AcDbSymbolTableRecord
100
AcDbLayerTableRecord
  2
Silk
 70
0
  6
CONTINUOUS
  0
ENDTAB
  0
TABLE
  2
STYLE
  5
3
330
0
100
AcDbSymbolTable
 70
     1
  0
STYLE
  5
11
330
3
100
AcDbSymbolTableRecord
100
AcDbTextStyleTableRecord
  2
STANDARD
 70
     0
 40
0.0
 41
1.0
 50
0.0
 71
     0
 42
2.5
  3
txt
  4

  0
ENDTAB
  0
TABLE
  2
VIEW
  5
6
330
0
100
AcDbSymbolTable
 70
     0
  0
ENDTAB
  0
TABLE
  2
UCS
  5
7
330
0
100
AcDbSymbolTable
 70
     0
  0
ENDTAB
  0
TABLE
  2
APPID
  5
9
330
0
100
AcDbSymbolTable
 70
     2
  0
APPID
  5
12
330
9
100
AcDbSymbolTableRecord
100
AcDbRegAppTableRecord
  2
ACAD
 70
     0
  0
ENDTAB
  0
TABLE
  2
DIMSTYLE
  5
A
330
0
100
AcDbSymbolTable
 70
     1
  0
DIMSTYLE
105
27
330
A
100
AcDbSymbolTableRecord
100
AcDbDimStyleTableRecord
  2
ISO-25
 70
     0
  3

  4

  5

  6

  7

 40
1.0
 41
2.5
 42
0.625
 43
3.75
 44
1.25
 45
0.0
 46
0.0
 47
0.0
 48
0.0
140
2.5
141
2.5
142
0.0
143
0.03937007874016
144
1.0
145
0.0
146
1.0
147
0.625
 71
     0
 72
     0
 73
     0
 74
     0
 75
     0
 76
     0
 77
     1
 78
     8
170
     0
171
     3
172
     1
173
     0
174
     0
175
     0
176
     0
177
     0
178
     0
270
     2
271
     2
272
     2
273
     2
274
     3
340
11
275
     0
280
     0
281
     0
282
     0
283
     0
284
     8
285
     0
286
     0
287
     3
288
     0
  0
ENDTAB
  0
TABLE
  2
BLOCK_RECORD
  5
1
330
0
100
AcDbSymbolTable
 70
     1
  0
BLOCK_RECORD
  5
1F
330
1
100
AcDbSymbolTableRecord
100
AcDbBlockTableRecord
  2
*MODEL_SPACE
  0
BLOCK_RECORD
  5
1B
330
1
100
AcDbSymbolTableRecord
100
AcDbBlockTableRecord
  2
*PAPER_SPACE
  0
ENDTAB
  0
ENDSEC
  0
SECTION
  2
BLOCKS
  0
BLOCK
  5
20
330
1F
100
AcDbEntity
  8
0
100
AcDbBlockBegin
  2
*MODEL_SPACE
 70
     0
 10
0.0
 20
0.0
 30
0.0
  3
*MODEL_SPACE
  1

  0
ENDBLK
  5
21
330
1F
100
AcDbEntity
  8
0
100
AcDbBlockEnd
  0
BLOCK
  5
1C
330
1B
100
AcDbEntity
 67
     1
  8
0
100
AcDbBlockBegin
  2
*PAPER_SPACE
  1

  0
ENDBLK
  5
1D
330
1B
100
AcDbEntity
 67
     1
  8
0
100
AcDbBlockEnd
  0
ENDSEC
  0
SECTION
  2
ENTITIES
  0
LWPOLYLINE
  5
100
100
AcDbEntity
  8
Silk
 62
7
100
AcDbPolyline
 90
41
 70
1
 10
34.413042
 20
9.743237
 30
0.0
 10
35.833206
 20
8.521042
 30
0.0
 10
37.392882
 20
7.539584
 30
0.0
 10
39.062689
 20
6.804707
 30
0.0
 10
40.813248
 20
6.322256
 30
0.0
 10
42.615180
 20
6.098073
 30
0.0
 10
44.439106
 20
6.138003
 30
0.0
 10
46.255645
 20
6.447890
 30
0.0
 10
48.035420
 20
7.033578
 30
0.0
 10
49.708054
 20
7.877924
 30
0.0
 10
51.211665
 20
8.943289
 30
0.0
 10
52.529610
 20
10.204764
 30
0.0
 10
53.645247
 20
11.637444
 30
0.0
 10
54.541934
 20
13.216421
 30
0.0
 10
55.203030
 20
14.916789
 30
0.0
 10
55.611891
 20
16.713642
 30
0.0
 10
55.751877
 20
18.582072
 30
0.0
 10
55.611891
 20
20.450502
 30
0.0
 10
55.203030
 20
22.247354
 30
0.0
 10
54.541934
 20
23.947722
 30
0.0
 10
53.645247
 20
25.526700
 30
0.0
 10
52.529610
 20
26.959379
 30
0.0
 10
51.211665
 20
28.220854
 30
0.0
 10
49.708054
 20
29.286219
 30
0.0
 10
48.035420
 20
30.130566
 30
0.0
 10
46.255645
 20
30.716253
 30
0.0
 10
44.439106
 20
31.026140
 30
0.0
 10
42.615180
 20
31.066070
 30
0.0
 10
40.813248
 20
30.841888
 30
0.0
 10
39.062689
 20
30.359436
 30
0.0
 10
37.392882
 20
29.624559
 30
0.0
 10
35.833206
 20
28.643101
 30
0.0
 10
34.413042
 20
27.420906
 30
0.0
 10
32.852024
 20
25.517078
 30
0.0
 10
31.703383
 20
23.365615
 30
0.0
 10
30.994280
 20
21.032088
 30
0.0
 10
30.751877
 20
18.582072
 30
0.0
 10
30.994280
 20
16.132055
 30
0.0
 10
31.703383
 20
13.798529
 30
0.0
 10
32.852024
 20
11.647065
 30
0.0
 10
34.413042
 20
9.743237
 30
0.0
  0
LWPOLYLINE
  5
101
100
AcDbEntity
  8
Silk
 62
7
100
AcDbPolyline
 90
12
 70
1
 10
2.109743
 20
42.871547
 30
0.0
 10
10.609999
 20
42.871548
 30
0.0
 10
10.609999
 20
34.371808
 30
0.0
 10
18.610028
 20
34.371808
 30
0.0
 10
18.610028
 20
42.871547
 30
0.0
 10
27.109768
 20
42.871547
 30
0.0
 10
27.109768
 20
50.871575
 30
0.0
 10
18.610028
 20
50.871575
 30
0.0
 10
18.610028
 20
59.371832
 30
0.0
 10
10.609999
 20
59.371832
 30
0.0
 10
10.609999
 20
50.871575
 30
0.0
 10
2.109743
 20
50.871575
 30
0.0
  0
LWPOLYLINE
  5
102
100
AcDbEntity
  8
Silk
 62
7
100
AcDbPolyline
 90
41
 70
1
 10
85.851663
 20
30.729997
 30
0.0
 10
83.983233
 20
30.590011
 30
0.0
 10
82.186380
 20
30.181150
 30
0.0
 10
80.486012
 20
29.520054
 30
0.0
 10
78.907035
 20
28.623367
 30
0.0
 10
77.474356
 20
27.507730
 30
0.0
 10
76.212880
 20
26.189785
 30
0.0
 10
75.147516
 20
24.686174
 30
0.0
 10
74.303169
 20
23.013540
 30
0.0
 10
73.717481
 20
21.233765
 30
0.0
 10
73.407594
 20
19.417225
 30
0.0
 10
73.367664
 20
17.593300
 30
0.0
 10
73.591847
 20
15.791368
 30
0.0
 10
74.074299
 20
14.040808
 30
0.0
 10
74.809175
 20
12.371001
 30
0.0
 10
75.790633
 20
10.811326
 30
0.0
 10
77.012828
 20
9.391162
 30
0.0
 10
78.432992
 20
8.168967
 30
0.0
 10
79.992668
 20
7.187509
 30
0.0
 10
81.662475
 20
6.452632
 30
0.0
 10
83.413034
 20
5.970181
 30
0.0
 10
85.214966
 20
5.745998
 30
0.0
 10
87.038892
 20
5.785928
 30
0.0
 10
88.855431
 20
6.095815
 30
0.0
 10
90.635206
 20
6.681502
 30
0.0
 10
92.307840
 20
7.525849
 30
0.0
 10
93.811451
 20
8.591214
 30
0.0
 10
95.129396
 20
9.852689
 30
0.0
 10
96.245033
 20
11.285369
 30
0.0
 10
97.141721
 20
12.864346
 30
0.0
 10
97.802816
 20
14.564714
 30
0.0
 10
98.211678
 20
16.361567
 30
0.0
 10
98.351663
 20
18.229997
 30
0.0
 10
98.097707
 20
20.749183
 30
0.0
 10
97.369351
 20
23.095561
 30
0.0
 10
96.216859
 20
25.218866
 30
0.0
 10
94.690498
 20
27.068831
 30
0.0
 10
92.840532
 20
28.595193
 30
0.0
 10
90.717227
 20
29.747685
 30
0.0
 10
88.370849
 20
30.476041
 30
0.0
 10
85.851663
 20
30.729997
 30
0.0
  0
LWPOLYLINE
  5
103
100
AcDbEntity
  8
Silk
 62
7
100
AcDbPolyline
 90
25
 70
1
 10
124.162990
 20
51.354116
 30
0.0
 10
122.990100
 20
51.178485
 30
0.0
 10
121.940709
 20
50.679994
 30
0.0
 10
121.078580
 20
49.901248
 30
0.0
 10
120.467472
 20
48.884849
 30
0.0
 10
120.180888
 20
47.734029
 30
0.0
 10
120.239849
 20
46.573754
 30
0.0
 10
120.629394
 20
45.479237
 30
0.0
 10
121.334563
 20
44.525689
 30
0.0
 10
122.288112
 20
43.820520
 30
0.0
 10
123.382629
 20
43.430975
 30
0.0
 10
124.542903
 20
43.372014
 30
0.0
 10
125.693724
 20
43.658598
 30
0.0
 10
126.710122
 20
44.269705
 30
0.0
 10
127.488868
 20
45.131835
 30
0.0
 10
127.987359
 20
46.181225
 30
0.0
 10
128.162990
 20
47.354116
 30
0.0
 10
128.085421
 20
48.138121
 30
0.0
 10
127.858508
 20
48.884849
 30
0.0
 10
127.490943
 20
49.573318
 30
0.0
 10
126.991417
 20
50.182543
 30
0.0
 10
126.382192
 20
50.682069
 30
0.0
 10
125.693724
 20
51.049634
 30
0.0
 10
124.946995
 20
51.276547
 30
0.0
 10
124.162990
 20
51.354116
 30
0.0
  0
LWPOLYLINE
  5
104
100
AcDbEntity
  8
Silk
 62
7
100
AcDbPolyline
 90
25
 70
1
 10
106.238420
 20
51.354116
 30
0.0
 10
105.065530
 20
51.178485
 30
0.0
 10
104.016139
 20
50.679994
 30
0.0
 10
103.154010
 20
49.901248
 30
0.0
 10
102.542902
 20
48.884849
 30
0.0
 10
102.256318
 20
47.734029
 30
0.0
 10
102.315279
 20
46.573754
 30
0.0
 10
102.704824
 20
45.479237
 30
0.0
 10
103.409993
 20
44.525689
 30
0.0
 10
104.363542
 20
43.820520
 30
0.0
 10
105.458059
 20
43.430975
 30
0.0
 10
106.618333
 20
43.372014
 30
0.0
 10
107.769154
 20
43.658598
 30
0.0
 10
108.785552
 20
44.269705
 30
0.0
 10
109.564298
 20
45.131835
 30
0.0
 10
110.062789
 20
46.181225
 30
0.0
 10
110.238420
 20
47.354116
 30
0.0
 10
110.160851
 20
48.138121
 30
0.0
 10
109.933938
 20
48.884849
 30
0.0
 10
109.566373
 20
49.573318
 30
0.0
 10
109.066847
 20
50.182543
 30
0.0
 10
108.457622
 20
50.682069
 30
0.0
 10
107.769154
 20
51.049634
 30
0.0
 10
107.022425
 20
51.276547
 30
0.0
 10
106.238420
 20
51.354116
 30
0.0
  0
LWPOLYLINE
  5
105
100
AcDbEntity
  8
Silk
 62
7
100
AcDbPolyline
 90
25
 70
1
 10
119.138460
 20
55.608117
 30
0.0
 10
118.962829
 20
56.781007
 30
0.0
 10
118.464338
 20
57.830398
 30
0.0
 10
117.685592
 20
58.692527
 30
0.0
 10
116.669194
 20
59.303635
 30
0.0
 10
115.518373
 20
59.590219
 30
0.0
 10
114.358099
 20
59.531258
 30
0.0
 10
113.263582
 20
59.141713
 30
0.0
 10
112.310033
 20
58.436544
 30
0.0
 10
111.604864
 20
57.482995
 30
0.0
 10
111.215319
 20
56.388478
 30
0.0
 10
111.156358
 20
55.228203
 30
0.0
 10
111.442942
 20
54.077383
 30
0.0
 10
112.054050
 20
53.060985
 30
0.0
 10
112.916179
 20
52.282238
 30
0.0
 10
113.965570
 20
51.783748
 30
0.0
 10
115.138460
 20
51.608117
 30
0.0
 10
115.922465
 20
51.685686
 30
0.0
 10
116.669194
 20
51.912599
 30
0.0
 10
117.357662
 20
52.280164
 30
0.0
 10
117.966887
 20
52.779690
 30
0.0
 10
118.466413
 20
53.388915
 30
0.0
 10
118.833978
 20
54.077383
 30
0.0
 10
119.060891
 20
54.824111
 30
0.0
 10
119.138460
 20
55.608117
 30
0.0
  0
LWPOLYLINE
  5
106
100
AcDbEntity
  8
Silk
 62
7
100
AcDbPolyline
 90
25
 70
1
 10
119.138460
 20
39.100116
 30
0.0
 10
118.962829
 20
40.273006
 30
0.0
 10
118.464338
 20
41.322397
 30
0.0
 10
117.685592
 20
42.184526
 30
0.0
 10
116.669194
 20
42.795634
 30
0.0
 10
115.518373
 20
43.082218
 30
0.0
 10
114.358099
 20
43.023257
 30
0.0
 10
113.263582
 20
42.633712
 30
0.0
 10
112.310033
 20
41.928543
 30
0.0
 10
111.604864
 20
40.974994
 30
0.0
 10
111.215319
 20
39.880477
 30
0.0
 10
111.156358
 20
38.720202
 30
0.0
 10
111.442942
 20
37.569382
 30
0.0
 10
112.054050
 20
36.552984
 30
0.0
 10
112.916179
 20
35.774237
 30
0.0
 10
113.965570
 20
35.275747
 30
0.0
 10
115.138460
 20
35.100116
 30
0.0
 10
115.922465
 20
35.177685
 30
0.0
 10
116.669194
 20
35.404598
 30
0.0
 10
117.357662
 20
35.772163
 30
0.0
 10
117.966887
 20
36.271689
 30
0.0
 10
118.466413
 20
36.880914
 30
0.0
 10
118.833978
 20
37.569382
 30
0.0
 10
119.060891
 20
38.316110
 30
0.0
 10
119.138460
 20
39.100116
 30
0.0
  0
ENDSEC
  0
SECTION
  2
OBJECTS
  0
DICTIONARY
  5
C
330
0
100
AcDbDictionary
  3
ACAD_GROUP
350
D
  3
ACAD_MLINESTYLE
350
17
  0
DICTIONARY
  5
D
330
C
100
AcDbDictionary
  0
DICTIONARY
  5
1A
330
C
100
AcDbDictionary
  0
DICTIONARY
  5
17
330
C
100
AcDbDictionary
  3
STANDARD
350
18
  0
DICTIONARY
  5
19
330
C
100
AcDbDictionary
  0
ENDSEC
  0
EOF
